<svg xmlns="http://www.w3.org/2000/svg" xmlns:xlink="http://www.w3.org/1999/xlink" version="1.1" x="0px" y="0px" viewBox="0 0 66 82.5" style="enable-background:new 0 0 66 66;" xml:space="preserve"><path d="M61.66,40.27H51.59l1.28-1.28c0.46-0.46,0.71-1.06,0.71-1.71c0-0.64-0.25-1.25-0.71-1.71l-6.06-6.06  c-0.91-0.91-2.51-0.91-3.42,0l-6.07,6.06c-0.25,0.25-0.43,0.55-0.55,0.86h-7.56c-0.12-0.31-0.3-0.61-0.55-0.86l-6.06-6.06  c-0.91-0.91-2.51-0.91-3.42,0l-6.07,6.06c-0.46,0.46-0.71,1.06-0.71,1.71c0,0.65,0.25,1.25,0.71,1.71l1.28,1.28H4.34  c-1.19,0-2.16,0.97-2.16,2.16v13.26c0,1.69,1.37,3.06,3.06,3.06h3.87v4.78H4.35c-0.4,0-0.73,0.33-0.73,0.73  c0,0.4,0.33,0.73,0.73,0.73h57.3c0.4,0,0.73-0.33,0.73-0.73c0-0.4-0.33-0.73-0.73-0.73h-4.76v-4.78h3.87c1.69,0,3.06-1.37,3.06-3.06  V42.43C63.82,41.24,62.85,40.27,61.66,40.27z M44.43,30.54c0.36-0.36,0.98-0.36,1.34,0l6.06,6.06c0.18,0.18,0.28,0.42,0.28,0.67  c0,0.25-0.1,0.49-0.28,0.67l-2.16,2.16h-9.16l-2.16-2.16c-0.15-0.15-0.23-0.34-0.25-0.55c0.03-0.07,0.05-0.15,0.05-0.24  c0-0.04-0.02-0.08-0.02-0.12c0.04-0.16,0.11-0.31,0.23-0.44L44.43,30.54z M13.89,37.28c0-0.25,0.1-0.49,0.28-0.67l6.07-6.06  c0.36-0.36,0.98-0.36,1.34,0l6.06,6.06c0.12,0.12,0.19,0.28,0.23,0.44c-0.01,0.04-0.02,0.08-0.02,0.12c0,0.08,0.02,0.16,0.05,0.23  c-0.03,0.21-0.1,0.4-0.26,0.55l-2.16,2.16h-9.16l-2.16-2.16C13.98,37.77,13.89,37.53,13.89,37.28z M28.67,38.99  c0.31-0.31,0.51-0.69,0.62-1.09h7.42c0.11,0.4,0.3,0.78,0.62,1.09l1.28,1.28H27.39L28.67,38.99z M4.34,41.73h57.33  c0.38,0,0.7,0.31,0.7,0.7V52.5H3.64V42.43C3.64,42.05,3.95,41.73,4.34,41.73z M10.58,63.53v-4.78h4.94l-2.26,4.78H10.58z   M48.86,58.76l2.26,4.78H14.87l2.26-4.78H48.86z M55.42,63.53h-2.68l-2.26-4.78h4.94V63.53z M62.36,55.69c0,0.88-0.72,1.6-1.6,1.6  H5.24c-0.88,0-1.6-0.72-1.6-1.6v-1.73h58.72V55.69z"/><path d="M7.51,37.91c0.4,0,0.73-0.33,0.73-0.73V27.6c0-1.95,1.58-3.53,3.53-3.53h7.96c0.4,0,0.73-0.33,0.73-0.73  c0-0.4-0.33-0.73-0.73-0.73h-7.96c-2.75,0-4.99,2.24-4.99,4.99v9.58C6.78,37.58,7.11,37.91,7.51,37.91z"/><path d="M50.71,24.07h3.52c1.95,0,3.53,1.58,3.53,3.53v9.58c0,0.4,0.33,0.73,0.73,0.73c0.4,0,0.73-0.33,0.73-0.73V27.6  c0-2.75-2.24-4.99-4.99-4.99h-3.52c-0.4,0-0.73,0.33-0.73,0.73C49.97,23.75,50.3,24.07,50.71,24.07z"/><path d="M38.73,28.89c0.12,0.04,0.24,0.05,0.37,0.05c0.34,0,0.67-0.13,0.92-0.38c0.34-0.34,0.47-0.84,0.33-1.3  c-1.51-5.07,1.11-9.76,3.56-12.8c0.79-0.98,1.15-2.2,1.02-3.45c-0.05-0.44-0.17-0.86-0.33-1.26l4.11-5.02  c0.39-0.47,0.57-1.06,0.51-1.66c-0.06-0.6-0.35-1.15-0.82-1.54c-0.47-0.39-1.07-0.57-1.67-0.51c-0.6,0.06-1.15,0.35-1.54,0.82  l-4.14,5.06c-0.35-0.05-0.71-0.08-1.08-0.05c-1.36,0.1-2.65,0.75-3.54,1.79c-2.48,2.92-6.51,6.3-11.69,5.82  c-0.48-0.05-0.94,0.18-1.21,0.59s-0.29,0.92-0.06,1.34C26.97,22.7,32.1,26.92,38.73,28.89z M46.33,2.76  c0.14-0.17,0.33-0.27,0.55-0.29c0.21-0.02,0.43,0.04,0.59,0.18c0.17,0.14,0.27,0.33,0.29,0.55c0.02,0.21-0.04,0.42-0.18,0.59  L43.8,8.41c-0.14-0.16-0.27-0.32-0.43-0.46c-0.25-0.22-0.53-0.41-0.82-0.56L46.33,2.76z M37.56,9.57c0.63-0.74,1.55-1.21,2.52-1.27  c0.87-0.06,1.69,0.2,2.31,0.75c0.62,0.54,1,1.29,1.09,2.11c0.09,0.86-0.16,1.71-0.7,2.38c-2.64,3.26-5.43,8.29-3.91,13.86  c-0.77-0.24-1.52-0.51-2.25-0.82c-0.46-2.37,1-4.63,1.01-4.66c0.22-0.34,0.13-0.79-0.21-1.02c-0.34-0.22-0.79-0.13-1.01,0.21  c-0.07,0.1-1.42,2.2-1.34,4.73c-1.1-0.55-2.13-1.2-3.11-1.91c0.97-2.98,3.48-4.81,3.51-4.83c0.33-0.23,0.41-0.69,0.17-1.02  c-0.23-0.33-0.69-0.41-1.02-0.17C34.49,18,31.94,19.85,30.72,23c-1.19-0.99-2.29-2.12-3.29-3.37c2.49-0.42,4.26-2.15,4.34-2.23  c0.29-0.29,0.29-0.75,0-1.04c-0.28-0.29-0.75-0.29-1.04-0.01c-0.02,0.02-1.94,1.84-4.36,1.88c-0.51-0.74-1.01-1.5-1.46-2.31  C30.57,16.32,34.91,12.7,37.56,9.57z"/><path d="M23.55,27.91c0.45,0.34,0.99,0.52,1.54,0.52c0.12,0,0.23-0.01,0.35-0.02c0.68-0.09,1.28-0.44,1.69-0.99  c0.41-0.54,0.59-1.22,0.5-1.89c-0.09-0.68-0.44-1.28-0.99-1.7c-0.54-0.41-1.22-0.59-1.9-0.5c-1.4,0.19-2.38,1.49-2.18,2.89  C22.65,26.9,23,27.5,23.55,27.91z M24.94,24.78c0.05-0.01,0.1-0.01,0.15-0.01c0.24,0,0.47,0.08,0.66,0.22  c0.23,0.18,0.38,0.44,0.42,0.73c0.04,0.29-0.04,0.57-0.21,0.81c-0.18,0.23-0.44,0.38-0.73,0.42c-0.29,0.04-0.57-0.04-0.81-0.21  c-0.23-0.18-0.38-0.43-0.42-0.72C23.93,25.42,24.35,24.87,24.94,24.78z"/><path d="M28.84,7.95c0.12,0,0.25-0.01,0.38-0.03c0.74-0.1,1.4-0.48,1.85-1.08c0.45-0.59,0.64-1.33,0.54-2.06  c-0.1-0.74-0.48-1.4-1.08-1.85c-0.6-0.45-1.34-0.65-2.07-0.54c-0.74,0.1-1.39,0.48-1.84,1.08c-0.45,0.59-0.64,1.33-0.54,2.07  C26.27,6.94,27.47,7.95,28.84,7.95z M27.79,4.36c0.21-0.28,0.52-0.46,0.87-0.51c0.06-0.01,0.12-0.01,0.18-0.01  c0.29,0,0.57,0.09,0.8,0.27c0.28,0.21,0.46,0.53,0.51,0.88c0.05,0.35-0.04,0.7-0.26,0.98c-0.21,0.28-0.53,0.46-0.88,0.51  c-0.73,0.11-1.39-0.41-1.49-1.13C27.48,4.99,27.57,4.64,27.79,4.36z"/><path d="M47.46,20.56c-0.67-0.51-1.5-0.72-2.33-0.61c-0.83,0.11-1.56,0.54-2.07,1.21c-0.51,0.67-0.72,1.49-0.61,2.32  c0.21,1.57,1.56,2.71,3.1,2.71c0.14,0,0.28-0.01,0.43-0.03c0.83-0.11,1.57-0.54,2.08-1.21c0.51-0.67,0.72-1.49,0.61-2.32  c0,0,0,0,0,0C48.56,21.81,48.12,21.07,47.46,20.56z M46.89,24.07c-0.27,0.36-0.67,0.58-1.11,0.65c-0.44,0.06-0.88-0.05-1.23-0.32  c-0.35-0.27-0.58-0.66-0.64-1.1c-0.06-0.44,0.05-0.88,0.32-1.24c0.27-0.35,0.66-0.58,1.1-0.64c0.08-0.01,0.15-0.02,0.23-0.02  c0.36,0,0.71,0.12,1.01,0.34c0.36,0.27,0.58,0.66,0.65,1.11C47.28,23.28,47.16,23.72,46.89,24.07z"/></svg>