<svg xmlns="http://www.w3.org/2000/svg" xmlns:xlink="http://www.w3.org/1999/xlink" version="1.1" x="0px" y="0px" viewBox="0 0 60 75" style="enable-background:new 0 0 60 60;" xml:space="preserve"><path d="M29.8510132,14.7384644c-5.3943481,0-6.1365967,3.1442261-6.8540649,6.1853027  c-0.8503418,3.6013794-1.729126,7.3252563-10.1456299,8.0934448c-1.4225464,0.1300049-2.6668701,0.7736206-3.3286133,1.7212524  c-0.4637451,0.6638794-0.6098022,1.4390869-0.411377,2.1825562c1.9152222,7.178772,10.7191162,12.3405151,20.7735596,12.3405151  c0.4298706,0,0.8630981-0.0095215,1.2971191-0.0285034c10.5911865-0.4678345,19.081543-6.5892334,19.7490845-14.2391357  c0.2949829-3.3777466-0.8998413-6.6366577-3.454895-9.4244385C43.5563354,17.2918701,36.9671021,14.7384644,29.8510132,14.7384644z   M49.2478027,30.8469849C48.663208,37.5438843,40.6951294,43.12146,31.1077271,43.5447998  c-9.8192749,0.4257813-18.5662231-4.3217163-20.3634033-11.0594482c-0.0697021-0.2615967-0.0144653-0.5235596,0.1641846-0.7797852  c0.3742065-0.5359497,1.1774902-0.9212646,2.0963135-1.0050049c9.6282349-0.8792114,10.7417603-5.5974121,11.6366577-9.3885498  c0.6939087-2.9408569,1.15271-4.883667,5.2095337-4.883667c6.6506958,0,12.7737427,2.3488159,16.3796387,6.2827148  C48.4569092,25.1402588,49.5003052,27.9536133,49.2478027,30.8469849z"/><path d="M36.0825806,20.758728c0-1.8054199-1.468811-3.2741699-3.274231-3.2741699s-3.2741699,1.46875-3.2741699,3.2741699  s1.46875,3.2741699,3.2741699,3.2741699S36.0825806,22.5641479,36.0825806,20.758728z M32.8083496,22.3430176  c-0.8734131,0-1.5842896-0.7108765-1.5842896-1.5842896s0.7108765-1.5842896,1.5842896-1.5842896  s1.5842896,0.7108765,1.5842896,1.5842896S33.6817627,22.3430176,32.8083496,22.3430176z"/><path d="M43.3005371,24.182251c0-1.8054199-1.46875-3.2741699-3.2741699-3.2741699s-3.274231,1.46875-3.274231,3.2741699  c0,1.805481,1.468811,3.274231,3.274231,3.274231S43.3005371,25.9877319,43.3005371,24.182251z M40.0263672,25.7665405  c-0.8734131,0-1.5842896-0.7108154-1.5842896-1.5842896c0-0.8734131,0.7108765-1.5842285,1.5842896-1.5842285  s1.5842896,0.7108154,1.5842896,1.5842285C41.6106567,25.0557251,40.8997803,25.7665405,40.0263672,25.7665405z"/><path d="M43.3900757,28.6483765c-1.8054199,0-3.2741699,1.46875-3.2741699,3.274231  c0,1.8054199,1.46875,3.2741699,3.2741699,3.2741699s3.2741699-1.46875,3.2741699-3.2741699  C46.6642456,30.1171265,45.1954956,28.6483765,43.3900757,28.6483765z M43.3900757,33.5068359  c-0.8734131,0-1.5842896-0.7108154-1.5842896-1.5842285c0-0.8734741,0.7108765-1.5842896,1.5842896-1.5842896  s1.5842896,0.7108154,1.5842896,1.5842896C44.9743652,32.7960205,44.2634888,33.5068359,43.3900757,33.5068359z"/><path d="M36.4208984,33.5068359c-1.805481,0-3.274231,1.468811-3.274231,3.274231s1.46875,3.2741699,3.274231,3.2741699  c1.8054199,0,3.2741699-1.46875,3.2741699-3.2741699S38.2263184,33.5068359,36.4208984,33.5068359z M36.4208984,38.3653564  c-0.8734741,0-1.5842896-0.7108765-1.5842896-1.5842896s0.7108154-1.5842896,1.5842896-1.5842896  c0.8734131,0,1.5842285,0.7108765,1.5842285,1.5842896S37.2943115,38.3653564,36.4208984,38.3653564z"/><path d="M28.0134277,35.0172729c-1.8054199,0-3.2741699,1.468811-3.2741699,3.274231s1.46875,3.2741699,3.2741699,3.2741699  s3.2741699-1.46875,3.2741699-3.2741699S29.8188477,35.0172729,28.0134277,35.0172729z M28.0134277,39.8757935  c-0.8734131,0-1.5842896-0.7108765-1.5842896-1.5842896s0.7108765-1.5842896,1.5842896-1.5842896  s1.5842896,0.7108765,1.5842896,1.5842896S28.8868408,39.8757935,28.0134277,39.8757935z"/><path d="M19.6060181,32.5880737c-1.8054199,0-3.274231,1.46875-3.274231,3.2741699s1.468811,3.2741699,3.274231,3.2741699  s3.2741699-1.46875,3.2741699-3.2741699S21.411438,32.5880737,19.6060181,32.5880737z M19.6060181,37.4465332  c-0.8734131,0-1.5842896-0.7108765-1.5842896-1.5842896s0.7108765-1.5842896,1.5842896-1.5842896  s1.5842896,0.7108765,1.5842896,1.5842896S20.4794312,37.4465332,19.6060181,37.4465332z"/></svg>