<?xml version="1.0" encoding="utf-8"?>
<!-- Generator: Adobe Illustrator 28.0.0, SVG Export Plug-In . SVG Version: 6.00 Build 0)  -->
<svg version="1.1" id="Layer_1" xmlns="http://www.w3.org/2000/svg" xmlns:xlink="http://www.w3.org/1999/xlink" x="0px" y="0px"
	 viewBox="0 0 512 497" style="enable-background:new 0 0 512 497;" xml:space="preserve">
<style type="text/css">
	.st0{fill:#FFFFFF;stroke:#000000;stroke-miterlimit:10;}
	.st1{fill:#FFFFFF;}
</style>
<path class="st0" d="M124.8,438.1l6.4-14.7C69.1,396.5,32,351.8,32,304c0-47.4,36.5-91.8,97.7-118.8c27.6-12.1,58.1-16.3,88-12.1
	c11.7,1.6,22.5,6.8,31,14.9l3.2,3.1c8.1,7.7,12.7,18.4,12.7,29.6c0,9.4,3.9,18.5,10.7,25c6.8,6.6,16,10.3,25.5,10.2h0.1l18.1-0.1
	l4.1,10.4C306,275.2,296,289,296,304c0,26.9,31.6,48,72,48s72-21.1,72-48c0-20.7-18.8-38.4-47.4-45.2L356.3,141
	c20.3-28.9,13.3-68.8-15.6-89.1c-8.5-6-18.4-9.8-28.8-11.1V35c0-10.5-8.5-19.1-19.1-19.1c-5.1,0-9.9,2-13.5,5.6l-8.8,8.8
	C251,50,239.9,76.6,240,104.4c0,27.2,17.2,51.4,42.8,60.4l13.7,34.6l14.9-5.9l-10-25.1c0.8,0,1.7,0.1,2.6,0.1
	c14.5,0,28.5-4.9,39.8-13.9L398.1,331c-9.6,3.5-19.8,5.2-30,5.2l-48.9-123l-14.9,5.9l8.3,21h-11.8h-0.1c-5.4,0-10.5-2-14.4-5.7
	c-3.7-3.5-5.8-8.4-5.8-13.5c-0.1-15.5-6.4-30.3-17.6-41.1l-3.2-3.1c-11-10.5-24.9-17.2-40-19.3c-32.8-4.6-66.3,0-96.6,13.3
	C56.1,200.2,16,250.1,16,304C16,358.4,56.7,408.5,124.8,438.1z M312,304c0-8.4,6.4-16.7,17.1-22.7l21.1,53
	C328.2,329.9,312,317.8,312,304z M304,152.4c-26.5,0-48-21.5-48-48c-0.1-23.5,9.3-46.1,25.9-62.6l8.8-8.8c0.5-0.6,1.3-0.9,2.1-0.9
	c0.4,0,0.9,0.1,1.2,0.3c1.2,0.4,1.9,1.6,1.9,2.8v13.3c0,4.4,3.6,8,8,8c26.5,0,48,21.5,48,48S330.5,152.4,304,152.4z M398.3,277.2
	c15.6,5.9,25.7,16,25.7,26.8c0,7.1-4.3,13.8-11.5,19.2L398.3,277.2z"/>
<path class="st0" d="M429.5,239.6c-0.1,0-0.3,0-0.4,0l-13.3,0.4l0.5,16l13.2-0.4l0,0c27.7,0,50.3,21.4,50.5,47.8v0.6
	c0,56-50,104.7-122.8,128.5l-4.6-9.2c-1.3-2.7-3.1-5.1-5.2-7.2l-8-8c-2.2-2.2-3.4-5.2-3.4-8.3v-4.1c0-15.3-12.5-27.8-27.8-27.7
	c-10.5,0-20.1,5.9-24.8,15.3l-2.9,5.8c-2.6,5.2-8.7,7.7-14.2,5.9c-7-2.3-14.6-1.8-21.2,1.5l-4,2c-4.3,2.2-8,5.4-10.7,9.4l-4.9,7.4
	c-6.3,9.6-6.1,22,0.4,31.4c-27-2.2-53.7-8-79.2-17.1l-5.4,15c35,12.6,74.6,19.3,114.7,19.3c48.8,0,95.4-9.6,134.8-27.5l1.7,4.3
	c0,0.1,0.1,0.2,0.1,0.3c3,6.7,8.6,11.9,15.5,14.4c14,5,29.4-2.3,34.4-16.2c2-5.5,2.1-11.4,0.4-17l-4.4-14.3
	C475.7,379.2,496,342.7,496,304v-0.6C495.8,268.2,466,239.6,429.5,239.6z M247.7,447.9l-8.1-9.7c-3.3-4-3.6-9.7-0.7-14l4.9-7.4
	c1.1-1.7,2.7-3.1,4.5-4l4-2c2.8-1.4,6-1.6,9-0.6c13.1,4.3,27.4-1.6,33.6-13.9l2.9-5.8c2.9-5.8,10-8.2,15.8-5.2c4,2,6.5,6,6.5,10.5
	v4.1c0,7.4,2.9,14.4,8.1,19.6l8,8c0.9,0.9,1.6,1.9,2.2,3l3.3,6.6c-27.9,7.3-56.7,11-85.6,10.9C253.2,448,250.4,448,247.7,447.9z
	 M427.7,427c1.8,5.8-1.5,11.9-7.2,13.6c-5.2,1.6-10.8-0.9-13.1-5.9l-2.1-5.3c6.7-3.5,13.1-7.3,19.2-11.3c0.1-0.1,0.3-0.2,0.4-0.3
	L427.7,427z"/>
<path class="st0" d="M56,268c0,15.7,18.2,28,41.3,28s41.3-12.3,41.3-28s-18.2-28-41.3-28S56,252.3,56,268z M122.7,268
	c0,4.9-9.9,12-25.3,12S72,272.9,72,268s9.9-12,25.3-12S122.7,263.1,122.7,268z"/>
<path class="st0" d="M105.3,368c23.2,0,41.3-12.3,41.3-28s-18.2-28-41.3-28S64,324.3,64,340S82.2,368,105.3,368z M105.3,328
	c15.5,0,25.3,7.1,25.3,12s-9.9,12-25.3,12S80,344.9,80,340S89.9,328,105.3,328z"/>
<path class="st0" d="M177.3,416c23.2,0,41.3-12.3,41.3-28s-18.2-28-41.3-28S136,372.3,136,388S154.2,416,177.3,416z M177.3,376
	c15.5,0,25.3,7.1,25.3,12s-9.9,12-25.3,12s-25.3-7.1-25.3-12S161.9,376,177.3,376z"/>
<path class="st1" d="M166.7,248c23.2,0,41.3-12.3,41.3-28s-18.2-28-41.3-28s-41.3,12.3-41.3,28S143.5,248,166.7,248z M166.7,208
	c15.5,0,25.3,7.1,25.3,12s-9.9,12-25.3,12s-25.3-7.1-25.3-12S151.2,208,166.7,208z"/>
<path class="st0" d="M266.4,311.5l1.9-7.5c2.9-12-3.8-24.2-15.5-28.2l-2.1-0.7c-2.5-0.8-4.4-2.9-5-5.4c-3.2-12.7-16-20.4-28.7-17.2
	c-3.3,0.8-6.4,2.4-9,4.5l-18.8,15c-0.7,0.6-1.5,1-2.4,1.3l-13.9,4.6c-7.1,2.4-12.6,7.9-15,15l-1.2,3.7c-3.7,11.2,1.4,23.3,11.9,28.6
	c14.4,7.2,30.5,10,46.5,8l31.3-3.9C256,328,264,321,266.4,311.5z M213,317.3c-12.8,1.6-25.8-0.6-37.3-6.4c-3.4-1.7-5-5.7-3.8-9.3
	l1.2-3.7l0,0c0.8-2.3,2.6-4.1,4.8-4.8l13.9-4.6c2.6-0.9,5.1-2.2,7.3-4l18.8-15c1.3-1.1,3-1.7,4.7-1.7c0.8,0,1.7,0.1,2.5,0.4
	c2.5,0.8,4.4,2.9,5,5.4c1.9,7.9,7.8,14.2,15.5,16.7l2.1,0.7c3.8,1.3,6,5.2,5,9.1l-1.9,7.5c-0.8,3.1-3.3,5.3-6.5,5.7L213,317.3z"/>
</svg>
