<svg xmlns="http://www.w3.org/2000/svg" viewBox="0 0 24 30" fill="none" x="0px" y="0px"><path fill-rule="evenodd" clip-rule="evenodd" d="M20 1C20 0.723858 20.2239 0.5 20.5 0.5C20.9643 0.5 21.4209 0.618464 21.8283 0.931813C22.2278 1.23914 22.5387 1.70226 22.7785 2.31878C23.252 3.5363 23.5 5.49149 23.5 8.5C23.5 10.0771 23.1054 11.1017 22.4786 11.7286C22.0197 12.1874 21.4817 12.3878 21 12.4623V22C21 22.2761 20.7761 22.5 20.5 22.5C20.2239 22.5 20 22.2761 20 22V1ZM21 11.4446C21.2718 11.3801 21.5411 11.2518 21.7714 11.0214C22.1446 10.6483 22.5 9.92293 22.5 8.5C22.5 5.50851 22.248 3.7137 21.8465 2.68122C21.6488 2.17274 21.4284 1.88586 21.2186 1.72444C21.1494 1.67126 21.0769 1.62819 21 1.59455V11.4446Z" fill="black"/><path d="M1.5 2C1.5 1.72386 1.27614 1.5 1 1.5C0.723858 1.5 0.5 1.72386 0.5 2V7.17544C0.5 7.43263 0.536894 7.75222 0.712499 8.04705C1.00172 8.53265 1.67648 9.31083 3 9.47072V22C3 22.2761 3.22386 22.5 3.5 22.5C3.77614 22.5 4 22.2761 4 22V9.47072C5.32352 9.31083 5.99828 8.53265 6.2875 8.04705C6.46311 7.75222 6.5 7.43263 6.5 7.17544V2C6.5 1.72386 6.27614 1.5 6 1.5C5.72386 1.5 5.5 1.72386 5.5 2V7.17544C5.5 7.34819 5.47274 7.46079 5.42835 7.53533C5.26168 7.81515 4.86145 8.31635 4 8.46033V2C4 1.72386 3.77614 1.5 3.5 1.5C3.22386 1.5 3 1.72386 3 2V8.46033C2.13855 8.31635 1.73832 7.81515 1.57165 7.53533C1.52726 7.46079 1.5 7.34819 1.5 7.17544V2Z" fill="black"/><path fill-rule="evenodd" clip-rule="evenodd" d="M5 15.5C5 11.634 8.13401 8.5 12 8.5C15.866 8.5 19 11.634 19 15.5C19 19.366 15.866 22.5 12 22.5C8.13401 22.5 5 19.366 5 15.5ZM12 9.5C8.68629 9.5 6 12.1862 6 15.5C6 18.8138 8.68629 21.5 12 21.5C15.3138 21.5 18 18.8138 18 15.5C18 12.1862 15.3138 9.5 12 9.5Z" fill="black"/><path fill-rule="evenodd" clip-rule="evenodd" d="M12 12.5C10.3431 12.5 9 13.8431 9 15.5C9 17.1569 10.3431 18.5 12 18.5C13.6569 18.5 15 17.1569 15 15.5C15 13.8431 13.6569 12.5 12 12.5ZM8 15.5C8 13.2909 9.79086 11.5 12 11.5C14.2091 11.5 16 13.2909 16 15.5C16 17.7091 14.2091 19.5 12 19.5C9.79086 19.5 8 17.7091 8 15.5Z" fill="black"/></svg>