<?xml version="1.0" encoding="utf-8"?>
<!-- Generator: Adobe Illustrator 28.0.0, SVG Export Plug-In . SVG Version: 6.00 Build 0)  -->
<svg version="1.1" id="Layer_1" xmlns="http://www.w3.org/2000/svg" xmlns:xlink="http://www.w3.org/1999/xlink" x="0px" y="0px"
	 viewBox="0 0 100 99.6" style="enable-background:new 0 0 100 99.6;" xml:space="preserve">
<style type="text/css">
	.st0{fill:#FFFFFF;stroke:#000000;stroke-miterlimit:10;}
</style>
<path class="st0" d="M46.9,85.9L46.9,85.9L46.9,85.9c0-0.4,0-0.8,0-1.2h0c1.5-0.2,2.3-0.3,2.5-0.3h0c0,0,0,0,0,0l0,0
	c0.3-0.1,0.6-0.4,0.5-0.7c-0.1-0.3-0.3-0.5-0.6-0.5c0,0-0.1,0-0.1,0h0c-0.1,0-0.9,0.1-2.2,0.3l0,0c-0.1,0-0.3,0-0.4,0l0,0
	c-0.2,0-0.5,0.1-0.6,0.1l0,0c-0.1,0-0.1,0-0.2,0.1c0,0,0,0,0,0c-0.6,0.2-1.2,0.5-1.7,0.9c0,0,0,0,0,0c-1.4,1.2-2.5,2.6-3.4,4.4l0,0
	c0.4,0.3,0.7,0.5,1,0.7l0,0c0.9-1.6,1.9-3,3.2-4.1l0,0c0.3-0.2,0.6-0.4,0.9-0.5c0,0.4,0,0.7,0,1.1l0,0c0,0,0,0,0,0c0,0,0,0,0,0l0,0
	c-0.2,0.3-0.3,0.5-0.3,0.6l0,0c-0.2,0.4-0.4,0.7-0.5,1.2h0c-0.1,0.1-0.2,0.3-0.3,0.5l0,0l-0.2,0.4l-0.8,1.3c0,0,0,0.1,0,0.1h0
	c0.4,0.1,0.9,0.1,1.3,0.2l0,0l0.6-1l0,0l0.2-0.4l0,0l0,0l0,0c0.1-0.3,0.3-0.5,0.3-0.6l0,0c0.2-0.4,0.4-0.8,0.5-1.1l0,0
	c0-0.1,0.2-0.3,0.4-0.7C47,86.4,47,86.1,46.9,85.9C46.9,85.9,46.9,85.9,46.9,85.9z"/>
<path class="st0" d="M43.6,31.2C43.6,31.2,43.6,31.2,43.6,31.2L43.6,31.2L43.6,31.2c0.4,0.9,0.7,1.7,1,2.4c0,0,0,0,0,0
	c0.7,3.2,1.3,7.7,1.8,13.5l0,0l0,0c-1.7-0.1-3.2-0.6-4.4-1.5c0,0,0,0,0,0c-1.5-0.9-2.7-2.1-3.7-3.7c0.4-0.8,0.7-1.3,0.8-1.6
	c0.2-0.2,0.5-0.4,0.7-0.5c0.2-0.1,0.4-0.2,0.6-0.2c1.1-0.2,1.7-0.4,1.8-0.5c0.4-0.2,0.8-0.6,1.2-1.3c0.2-0.3,0.3-0.6,0.4-1
	c0.3-1,0.4-1.6,0.4-1.8c0-0.1-0.1-0.1-0.2-0.1c-0.5,0.1-0.8,0.2-1.2,0.3c-1.5,0.5-2.6,1.4-3.1,2.7c0-0.1,0-0.1,0-0.2l0,0
	c0.2-1.2,0.2-2.6-0.1-4.1c-0.1-0.3-0.2-0.4-0.5-0.5c0-0.3,0.1-0.6,0.1-1.2c0-0.9,0-1.5-0.1-1.7c-0.3-1-0.6-1.8-1.2-2.4
	c-0.2-0.3-0.6-0.5-1-0.7c-1.2-0.4-1.8-0.6-2-0.6c-0.1,0-0.1,0.1-0.1,0.2c0,0.5,0,1,0,1.5c0.1,1.1,0.4,2.1,1,3.1
	c0.5,0.8,1.3,1.5,2.5,2.3c0,0.1-0.1,0.2,0,0.3c0.2,0.8,0.2,1.6,0.2,2.3c-0.1-0.1-0.2-0.2-0.3-0.3c0,0-0.3-0.5-0.9-1.6
	c-0.2-0.3-0.4-0.6-0.7-0.9c-0.5-0.5-1.3-1-2.3-1.2c-0.4-0.1-0.8-0.2-1.4-0.2c-0.1,0-0.5,0-1.3,0c-0.2,0-0.3,0-0.3,0.1
	c0.1,0.8,0.7,1.9,1.6,3.2c0.5,0.6,1.1,1.1,1.9,1.3c0.3,0.1,0.6,0.1,0.9,0.2c1.1,0,1.9,0.1,2.3,0.1l0.2,0.1c0,0.2,0,0.5-0.1,0.7
	c-0.2,0.9-0.4,1.7-0.6,2.3c0,0,0,0,0,0c0,0.2-0.2,0.4-0.4,0.8c-0.3-0.5-0.5-1.1-0.7-1.7c-0.1-0.3-0.3-0.4-0.6-0.4
	c-0.1,0-0.1,0-0.2,0c-0.3,0.1-0.5,0.5-0.4,0.8c0.5,1.3,1,2.4,1.7,3.5c0,0,0,0,0,0c0,0,0,0,0,0l0,0c0,0,0,0,0,0
	c0.3,0.4,0.5,0.8,0.8,1.1l0,0h0c0.9,1.1,1.9,2,3.1,2.7c1.5,1,3.3,1.6,5.2,1.7c0.2,0,0.4,0,0.6,0c0.2,0,0.4,0,0.6,0
	c0-0.4-0.1-0.8-0.1-1.2h0c-0.2-2.5-0.4-4.7-0.7-6.7c0-0.2,0-0.4-0.1-0.5h0l0,0c-0.3-2.1-0.5-3.9-0.8-5.5h0l0,0
	c0.1-0.1,0.1-0.3,0-0.5c-0.1-0.2-0.2-0.4-0.2-0.6l0,0c0,0,0-0.1,0-0.1c0-0.1-0.1-0.2-0.1-0.2h0c0,0,0,0,0,0
	c-0.3-0.7-0.6-1.4-0.9-2.2l-1.4-4c0,0,0,0,0,0c-0.3-0.6-0.5-1.1-0.7-1.4c-0.2-0.3-0.6-0.3-0.9-0.1c-0.3,0.2-0.3,0.6-0.1,0.9
	c0.1,0.2,0.3,0.5,0.6,1.1l0.3,0.8l0,0l0.1,0.2L43.6,31.2z M44.7,30.8L44.7,30.8L44.7,30.8L44.7,30.8z"/>
<path class="st0" d="M42.4,73.4c1.9-1.1,3-1.7,3.4-1.8c0.7-0.3,1.5-0.6,2.4-0.8c0.1-0.7,0.1-1.1,0.1-1.3h0c0,0,0,0,0,0
	c0.1-3.1,0.2-5.8,0.2-8l0,0c0-0.5,0-1-0.1-1.5l0,0h0l0,0l0,0c0-0.5-0.1-1.1-0.1-1.6c0,0,0,0,0,0l0,0c0-0.2,0-0.4,0-0.5h0v0
	c0-0.5-0.1-1-0.1-1.5l0,0c-0.1-2-0.2-4-0.4-5.8l-0.2,0l0.2,0c0-0.4-0.1-0.9-0.1-1.3L46.5,49h0l-1-0.1c-0.6-0.1-1.1-0.2-1.8-0.4l0,0
	c-1.1-0.3-2.1-0.8-2.9-1.4l0,0c-1.8-1.3-2.9-2.2-3-2.6c0-0.1-0.1-0.2-0.1-0.2c0,0,0,0,0-0.1l0,0c-0.3-0.4-0.5-0.8-0.8-1.2h0
	c-0.7-1.1-1.1-2.3-1.3-3.4c-0.1-0.3-0.3-0.5-0.6-0.5c0,0-0.1,0-0.1,0c-0.3,0.1-0.6,0.4-0.5,0.7c0.2,1.1,0.6,2.2,1.2,3.2h0
	c0,0,0,0,0,0h0c-1.1,0-2.1-0.3-2.9-0.7c-0.4-0.2-0.7-0.5-1.1-0.8c0.1-0.2,0.1-0.3,0.2-0.4c0,0,0.3-0.3,1-0.8
	c0.1-0.1,0.3-0.3,0.4-0.4c0.2-0.3,0.3-0.6,0.4-1.1c0.1-0.5,0-1-0.2-1.6c-0.1-0.3-0.4-0.9-1-1.7c-0.1-0.1-0.1-0.1-0.2,0
	c-0.3,0.4-0.6,0.8-0.7,1.1c-0.4,0.7-0.6,1.3-0.7,1.9c-0.2,0.7-0.2,1.4,0,2c-0.4-0.6-0.9-1.2-1.3-2c0-0.1,0-0.2,0.1-0.3
	c0.1-0.1,0.1-0.3,0.2-0.4c0.5-0.5,0.9-0.9,1-1.1c0.2-0.4,0.3-0.8,0.4-1.3c0.1-0.9-0.1-1.9-0.8-3.1c-0.1-0.2-0.2-0.4-0.4-0.7
	c0,0-0.1,0-0.1,0c-0.7,1.3-1.1,2.1-1.2,2.3c-0.2,0.4-0.4,0.9-0.5,1.5c-0.1,0.8-0.1,1.5,0.1,2.2c0,0.1,0.1,0.2,0.1,0.3
	c-0.3,0.2-0.3,0.5-0.2,0.8c0.7,1.3,1.4,2.3,2.1,3.1c-1.5,0-2.5,0-3.2-0.1c-0.9-0.2-1.7-0.6-2.3-1.2l0,0c-0.6-0.6-1.1-1.4-1.4-2.5
	c0.1-0.1,0.2-0.2,0.3-0.2c0.2-0.1,0.4-0.2,0.7-0.4c1.3-0.4,1.9-0.7,2-0.9c0.4-0.3,0.8-0.8,1.2-1.7c0.2-0.3,0.3-0.7,0.4-1.3
	c0.2-1.2,0.2-1.9,0.2-2.1c0-0.1-0.1-0.1-0.3-0.1c-0.5,0.2-1,0.3-1.3,0.5c-2.2,1.1-3.3,2.7-3.5,4.9c-0.2-1-0.3-2.2-0.4-3.6
	c0-0.1,0-0.2-0.1-0.2c0.1-0.2,0.4-0.6,0.7-1.2c0.4-0.9,0.7-1.4,0.7-1.6c0.2-1.1,0.2-2.1,0-2.9c-0.1-0.4-0.3-0.7-0.6-1.2
	c-0.9-0.9-1.5-1.5-1.6-1.5c-0.1,0-0.1,0-0.2,0.2c-0.2,0.4-0.5,0.9-0.7,1.4c-0.4,1.1-0.6,2.2-0.4,3.4c0.1,0.9,0.5,2,1.3,3.1
	c-0.2,0.1-0.3,0.3-0.3,0.6c0,0.5,0.1,1,0.1,1.5c0,0,0,0,0,0c-0.1-0.1-0.2-0.2-0.4-0.4c0,0-0.3-0.5-0.9-1.6c-0.2-0.3-0.4-0.6-0.7-0.9
	c-0.5-0.5-1.3-1-2.3-1.2c-0.4-0.1-0.8-0.2-1.4-0.2c-0.1,0-0.5,0-1.3,0c-0.2,0-0.3,0-0.3,0.1c0.1,0.8,0.7,1.9,1.6,3.2
	c0.5,0.6,1.1,1.1,1.9,1.3c0.3,0.1,0.6,0.1,0.9,0.2c1.1,0,1.9,0.1,2.3,0.1l0.5,0.1c0.1,1.2,0.3,2.2,0.5,2.9l0,0c0,0.1,0,0.1,0.1,0.2
	c-0.2-0.2-0.3-0.5-0.5-0.7c-0.5-0.5-1.3-1-2.3-1.2c-0.4-0.1-0.8-0.2-1.4-0.2c-0.1,0-0.5,0-1.3,0c-0.2,0-0.3,0-0.3,0.1
	c0.1,0.8,0.7,1.9,1.6,3.2c0.5,0.6,1.1,1.1,1.9,1.3c0.3,0.1,0.6,0.1,0.9,0.2c1.1,0,1.9,0.1,2.3,0.1l0.8,0.2c0.7,0.6,1.6,1.1,2.6,1.4
	c-0.1,0-0.1,0-0.2,0c0,0-0.5,0.1-1.6,0.1c-0.3,0-0.7,0.1-0.9,0.2c-0.6,0.2-1.3,0.6-1.9,1.3c-0.2,0.2-0.5,0.6-0.7,1
	c-0.1,0.1-0.2,0.4-0.5,1c-0.1,0.1-0.1,0.2,0,0.3c0.7,0.2,1.7,0.2,3.1,0c0.7-0.1,1.3-0.5,1.8-1c0.2-0.2,0.4-0.4,0.5-0.6
	c0.5-0.8,0.8-1.4,1-1.8l0.3-0.3c0.9,0.1,2.1,0.1,3.8,0c0.1,0,0.2,0,0.3-0.1c0.2,0.2,0.4,0.3,0.6,0.4l0,0c0.3,0.1,0.5,0.2,0.8,0.3
	c0,0-0.1,0-0.1,0c-0.3,0-0.7,0-1,0.1c-0.7,0.1-1.4,0.5-2,1.1c-0.3,0.2-0.6,0.5-0.8,0.9c-0.1,0.1-0.3,0.4-0.6,0.9
	C28,47,28,47.1,28,47.1c0.7,0.3,1.7,0.4,3.2,0.4c0.7-0.1,1.4-0.3,1.9-0.8c0.2-0.2,0.4-0.4,0.6-0.6c0.6-0.8,1-1.4,1.2-1.7l0.1-0.1
	c0.2,0,0.4,0,0.6,0c0.2,0,0.3,0,0.5,0c0.1,0.2,0.3,0.4,0.4,0.6c0,0,0,0,0,0.1c0.3,0.6,1.4,1.6,3.5,3.1c0.9,0.7,2,1.2,3.3,1.6
	c0.7,0.2,1.3,0.3,1.9,0.5c0,0,0,0,0,0l1.3,0.2l0,0c0.2,2.2,0.3,4.5,0.4,6.9l0,0c0,0,0,0,0,0c0,0.5,0.1,1,0.1,1.6c0,0.2,0,0.4,0,0.6
	l0,0c0,0,0,0,0,0c0,0.6,0.1,1.1,0.1,1.7c0,0.1,0,0.3,0,0.4c0,2.2,0,4.8-0.2,7.9l0,0c0,0.1,0,0.2,0,0.4l0,0c-0.4,0.1-0.8,0.3-1.2,0.4
	l-1.2,0.5c-0.8,0.4-1.7,0.9-2.5,1.4c-2.7,1.7-5.1,3.8-7.3,6.1c-1.7,1.9-3.2,4.3-4.4,7.2c-0.4,0.9-0.8,2-1.1,3.3c0,0,0,0.1,0,0.1
	l1.2,0c1.3-4.2,3-7.4,5.1-9.8C37.8,76.9,40,75,42.4,73.4z M36.1,44.3C36.1,44.3,36.1,44.3,36.1,44.3L36.1,44.3
	C36.1,44.3,36.1,44.3,36.1,44.3z"/>
<path class="st0" d="M60.4,87.2c-0.2-0.7-0.4-1.3-0.6-1.9c-0.2-0.6-0.5-1.2-0.8-1.8c-0.1-0.3-0.7-1.2-1.6-2.5
	c-0.4-0.5-0.7-1-1.1-1.4c-0.4-0.4-0.8-0.8-1.2-1.2l-0.7-0.5c-0.4-0.3-0.9-0.6-1.4-0.9c-0.2-0.1-0.5-0.3-0.7-0.4c0,0,0,0,0,0
	c0,0-0.1,0-0.1,0c-0.1-0.1-0.3-0.1-0.4-0.2c-0.1,0-0.1,0-0.2-0.1c-0.2-0.1-0.4-0.1-0.5-0.2c0,0,0,0,0,0h0l0,0.2l0,1.1
	c-0.1,1.5-0.1,2.7-0.1,3.4c0,0,0,0,0,0.1c0,0.5,0,0.9,0,1.4c1.3,0.8,2.4,1.8,3.3,2.9c1.1,1.5,1.7,2.8,1.9,4.1l0.5,0
	c0.2,0,0.4,0.1,0.7,0.2c0-0.1,0.1-0.2,0.1-0.3c-0.1-0.8-0.4-1.6-0.7-2.4l-0.3-0.6c-0.2-0.4-0.4-0.8-0.7-1.2
	c-0.3-0.4-0.6-0.8-0.9-1.2c-0.5-0.6-1.2-1.2-2-1.9c-0.2-0.1-0.4-0.3-0.6-0.4c0,0,0,0,0,0c0,0,0,0,0,0h0c0-0.2,0-0.4,0-0.6
	c0-0.6,0-1.6,0.1-2.9c1.6,0.8,3,2.1,4.2,3.8c0.8,1.2,1.3,1.9,1.4,2.2c0.3,0.5,0.5,1.1,0.8,1.7l0.3,0.9c0.2,0.6,0.4,1.2,0.5,1.8
	c0.1,0.6,0.2,1.3,0.3,1.9c0.3,0,0.8,0.1,1.3,0.1c-0.1-0.7-0.2-1.4-0.3-2.1L60.4,87.2z"/>
<path class="st0" d="M62.2,71.1c-1.4-1.6-2.9-3-4.6-4.3c-0.9-0.6-1.8-1.2-2.7-1.8c-0.4-0.3-1.4-0.8-3-1.6c0,0,0,0,0,0c0,0,0,0,0,0h0
	c-0.2-2-0.2-3.3-0.3-4l0,0c0-0.4,0-1-0.1-1.9l-1.2,0.9c0,0.5,0,0.9,0,1.2c0,0.6,0.1,1.8,0.2,3.4c0,0.2,0,0.3,0,0.5l0,0l0.1,0.9
	c0,0.3,0,0.6,0,0.9l0,0.6v0l0,0l0,1.3l0,3.6v0c0,1.3,0.1,2.3,0.1,3.1c0,0.1,0,0.1,0,0.2l0,1.1c0.2,0.1,0.4,0.1,0.6,0.2
	c0,0,0.1,0,0.1,0c0.2,0.1,0.4,0.2,0.6,0.2c0.2,0.1,0.7,0.4,1.6,1c1.1,0.8,2.1,1.8,3.2,3c1.1,1.6,1.8,2.6,2,3
	c0.4,0.7,0.7,1.3,0.9,1.8c0.3,0.7,0.5,1.5,0.7,2.4c0.1,0.4,0.2,0.9,0.3,1.3l0.4,2.3l0,0c0.4,0,0.7,0,1.1,0c0.1-0.1,0.1-0.2,0.1-0.3
	c-0.2-1.9-0.7-4-1.4-6.2c-0.7-1.6-1.8-3.4-3.1-5.2c-0.4-0.5-0.9-1-1.3-1.4c-1.1-1-1.7-1.5-1.9-1.7c-0.9-0.6-1.7-1.1-2.6-1.5l0,0
	c0,0,0,0,0,0h0c0-0.9,0-2-0.1-3.5l0-3.1c1.4,0.6,2.6,1.2,3.6,2c0.8,0.6,1.7,1.3,2.8,2.3c0.5,0.5,0.9,0.9,1.1,1.1
	c1.9,2.1,3.5,4.1,4.6,5.9c0.3,0.5,0.6,1,0.9,1.4l3.4,6.8c0.3,0,0.7,0,1.4,0L66,79.7c-1.6-2.6-3-4.7-4.3-6.2
	c-2.9-3.4-6.1-5.9-9.7-7.3v0c0,0,0,0,0,0h0l0-1.1v0c0-0.1,0-0.2,0-0.2c1.4,0.7,2.3,1.2,2.7,1.5c0.8,0.5,1.7,1.1,2.4,1.7
	c1.5,1.2,2.9,2.5,4.2,3.9c2.4,2.9,4.2,5.3,5.4,7.3c0.5,0.6,1.6,3.3,3.4,7.9l1.4,0.1c-2-5.2-3.3-8.1-3.7-8.6
	C66.6,76.6,64.7,74.1,62.2,71.1z"/>
<path class="st0" d="M41.7,84.4c0.6-0.6,1.3-1.1,2.1-1.6l3.3-1.9c0-0.6,0.1-1.1,0.1-1.5l0,0c0.1-1,0.1-1.5,0.1-1.7c0,0,0-0.1,0-0.2
	c0-0.4,0.2-1.9,0.6-4.6h0c0,0,0-0.1,0-0.1c0.1-0.3,0.1-0.5,0.1-0.7c0,0,0,0,0,0l0,0c0-0.2,0-0.4,0.1-0.5c0,0,0,0,0,0h0l-0.1,0
	c-1.7,0.4-3.2,1-4.7,1.9c-1.3,0.8-2.8,1.9-4.6,3.2c-0.8,0.6-1.6,1.3-2.2,2c-0.7,0.8-1.4,1.8-2.2,2.9c-1.1,1.7-1.8,2.8-2.1,3.3
	c-0.1,0.2-0.2,0.4-0.3,0.6c-0.4,1.1-0.7,2.2-0.8,3.3l1.3-0.1c0.2-1.2,0.5-2.3,0.9-3.1c2.1-3.3,3.4-5.2,4-5.9
	c0.1-0.1,0.2-0.2,0.4-0.3c0.2-0.3,0.5-0.5,0.7-0.8l1.1-0.9c0.5-0.4,2-1.5,4.5-3.1c0.7-0.4,1.6-0.9,2.7-1.2c-0.4,2.3-0.5,3.7-0.5,4.1
	c0,0.2-0.1,1.1-0.2,2.6l-2.5,1.4c-0.4,0.2-0.7,0.4-1,0.7c-0.4,0.3-0.9,0.7-1.6,1.3c-0.3,0.3-0.6,0.6-0.9,0.9
	c-0.8,0.9-1.7,2.1-2.5,3.6c0.3,0,0.8,0.1,1.3,0.2C39.8,86.6,40.7,85.3,41.7,84.4z"/>
<path class="st0" d="M54,87c-0.1-0.1-0.2-0.2-0.3-0.3c-0.2-0.2-0.5-0.4-0.7-0.6c-0.1-0.1-0.3-0.2-0.6-0.4c-0.2-0.1-0.3-0.2-0.4-0.2
	c-0.1,0-0.1-0.1-0.2-0.1c-0.2-0.1-0.3-0.1-0.4-0.2c0,0-0.1,0-0.1,0c-0.1,0-0.1,0-0.2,0h0l0,0.2c0,0.1,0,0.3,0.1,0.4
	c0,0.1,0,0.1,0,0.2c0,0.2,0.1,0.4,0.1,0.7c0,0,0,0,0,0h0c0,0,0,0,0,0v0c0,0,0,0,0,0c0,0,0,0,0,0c-0.1,0.1-0.1,0.2-0.1,0.3
	c0,0.3,0,0.5,0,0.7l0,0c0,0,0,0,0,0c0,0.1,0.1,0.5,0.2,1.2h0l0.1,0.7c-0.5-0.7-0.9-1.3-1.2-1.6l0,0c-0.4-0.5-0.6-0.8-0.8-0.9l0,0
	c-0.1-0.1-0.3-0.2-0.4-0.2c0,0,0,0-0.1,0c0,0,0,0-0.1,0c-0.3,0-0.5,0.2-0.7,0.5c-0.1,0.1-0.1,0.3-0.1,0.4l0,0l-0.3,2.2l0,0
	c-0.1,0.3-0.1,0.6-0.2,0.7c0,0.1,0,0.2-0.1,0.2l0,0c0.3,0.1,0.7,0.2,1,0.3c0,0,0.1,0,0.2,0c0,0,0,0,0,0c0.1-0.3,0.2-0.6,0.3-1l0,0
	l0.2-1.6h0c0,0,0,0,0,0l0,0c0.3,0.4,0.7,0.9,1.3,1.8l0,0v0c0.1,0.2,0.2,0.3,0.4,0.5l0,0c0.2,0.2,0.4,0.4,0.5,0.5l0,0
	c0.2,0.1,0.4,0.2,0.5,0.2c0.2,0,0.4-0.1,0.5-0.3c0.1-0.1,0.1-0.1,0.1-0.2c0.1-0.4,0.2-0.9,0.1-1.4h0l-0.1-1.2c0,0,0-0.1,0-0.1
	c-0.1-0.6-0.2-0.9-0.2-1h0c0,0,0,0,0-0.1c0-0.1,0-0.2,0-0.3c0.3,0.2,0.5,0.4,0.7,0.6c0.4,0.4,0.8,1.1,1.2,2c0.2-0.1,0.4-0.2,0.4-0.2
	c0.3-0.1,0.6-0.1,0.8-0.2c-0.3-0.6-0.6-1.2-0.9-1.7C54.5,87.6,54.3,87.4,54,87z"/>
<polygon points="67.5,37.7 67.5,37.7 67.5,37.7 "/>
<path class="st0" d="M44.1,17.3l0.1,0.5c0,0,0,0,0,0l0,0h0c-0.2,0.1-0.4,0.4-0.3,0.6c0.1,1.1,0.2,1.8,0.2,2.2l0,0
	c0,0.8,0,1.5-0.1,2.1c-0.1,0.4-0.1,0.8-0.2,1l0,0c-0.1,0.1-0.1,0.3-0.3,0.6c0,0,0,0,0,0c0,0,0,0,0,0c-0.2,0.1-0.3,0.4-0.3,0.6
	c0,0,0,0,0,0c0,0,0,0,0,0c0,0,0,0,0,0.1c0,0,0,0,0,0c0,0,0,0,0,0.1c0,0,0,0,0,0c0,0,0,0,0,0.1c0,0,0,0,0,0.1c0,0,0,0,0,0.1
	c0,0,0,0,0,0.1c0,0,0,0.1,0,0.1c0,0,0,0.1,0,0.1c0,0,0,0.1,0,0.1c0,0,0,0.1,0,0.1c0,0.1,0,0.1,0.1,0.2c0,0,0,0,0,0c0,0,0,0,0,0l0,0
	c0.2,0.7,0.6,1.8,1.1,3.2l0.8,2.8c0,0,0,0.1,0,0.1c0.2,0.6,0.5,0.9,0.7,1.1c0.2,0.2,0.5,0.3,0.8,0.2c0.1,0,0.2-0.1,0.3-0.1
	c2.8-2.6,4.4-5.4,4.7-8.5c0,0,0,0,0,0.1c0.1,0.1,0.3,0.2,0.5,0.2c0,0,0,0,0,0l0,0c0,0,0,0,0,0c-0.2,1-0.5,2-0.9,2.8l0,0
	c-0.4,0.9-0.8,1.6-1.1,2.1l0,0c-0.3,0.6-1,1.5-1.9,2.8l0,0c0,0.1-0.1,0.1-0.1,0.2c0,0,0,0,0,0c-0.1,0.1-0.2,0.3-0.3,0.5c0,0,0,0,0,0
	c0,0,0,0.1-0.1,0.1c0,0,0,0.1,0,0.1l0,0c0,0,0,0,0,0c0,0.3,0,0.6,0,0.9c0,0,0,0,0,0l0,0h0c0,1.4,0.1,2.7,0.2,3.8c0,0,0,0,0,0
	c0,0.1,0,0.3,0.1,0.5c0,0,0,0,0,0c0,0.3,0.1,0.7,0.2,1.3c0.4-0.2,0.8-0.3,1.2-0.5l0,0h0c5.2-2.3,8.9-5.8,11-10.4c0,0,0,0,0,0
	c0-0.1,0.1-0.2,0.1-0.3c0.1-0.1,0.1-0.3,0.2-0.4c0.1-0.2,0.2-0.4,0.2-0.6c0.1-0.1,0.1-0.3,0.2-0.4c0-0.1,0-0.1,0.1-0.2c0,0,0,0,0,0
	c0.1-0.3,0.2-0.5,0.3-0.8c0.1-0.3-0.1-0.7-0.4-0.8c0,0-0.1,0-0.1,0c0,0,0,0,0,0l0,0c0-0.3-0.1-0.6-0.1-0.9c-0.1-1.4-0.1-2.5,0-3.2
	c0.1-0.8,0.2-1.4,0.3-1.8c0-0.1,0-0.1,0-0.2c0.2-0.2,0.4-0.4,0.6-0.5c0.2-0.1,0.4-0.2,0.7-0.4c1.3-0.4,1.9-0.7,2-0.8
	c0.4-0.3,0.8-0.8,1.2-1.7c0.2-0.3,0.3-0.7,0.4-1.3c0.2-1.2,0.2-1.9,0.2-2.1c0-0.1-0.1-0.1-0.3-0.1c-0.5,0.2-1,0.3-1.3,0.5
	c-2.2,1.1-3.4,2.8-3.5,5.1l-0.3,0.6L61,18.8c0-0.7,0-1,0-1.1c0-0.3-0.1-0.6-0.2-0.9c-0.1-0.3-0.4-0.7-0.7-1c-0.6-0.5-1-0.7-1.1-0.6
	c-0.2,0.8-0.3,1.4-0.2,1.9c0.1,0.4,0.2,0.7,0.4,1c0,0.1,0.3,0.5,0.9,1c0.1,0.1,0.1,0.2,0.2,0.3c0,0.1,0,0.1,0.1,0.2c0,0,0,0.1,0,0.1
	c-0.2,0.5-0.3,1.2-0.4,2.1c-0.1,0.8-0.1,2,0,3.4l0,0c0.1,0.9,0.1,1.5,0.2,2c0,0,0,0,0,0.1c0,0-0.1-0.1-0.1-0.1
	C60.1,27.1,60,27,60,26.9c0,0-0.1-0.4-0.2-1.1c-0.1-0.7-0.3-1.1-0.3-1.2c-0.4-0.7-0.8-1.2-1.2-1.6c-0.2-0.2-0.5-0.3-0.8-0.4
	c-0.9-0.1-1.4-0.2-1.5-0.1c-0.1,0-0.1,0.1,0,0.2c0.1,0.3,0.1,0.7,0.2,1.1c0.2,0.8,0.6,1.5,1.2,2.1c0.5,0.5,1.2,0.9,2.2,1.2l0.7,0.6
	c-1.9,4.9-5.4,8.5-10.7,11l0,0c0,0,0,0,0,0c0,0,0-0.1,0-0.1c-0.1-1.3-0.2-2.7-0.3-4.4h0c0.1-0.1,0.1-0.2,0.2-0.3
	c1.1-1.5,1.8-2.5,2.1-3.1c0.3-0.5,0.7-1.3,1.2-2.2c0.6-1.3,1-2.8,1.1-4.5c0,0,0-0.1,0-0.1l0,0c0,0,0,0,0,0c1-1.1,1.7-2,1.9-2.7
	c0.7-1.5,1-3,1-4.5c0.3-0.4,0.7-0.8,1-1c0.2-0.1,0.4-0.2,0.7-0.4c1.3-0.4,1.9-0.7,2-0.8c0.4-0.3,0.8-0.8,1.2-1.7
	c0.2-0.3,0.3-0.7,0.4-1.3c0.2-1.2,0.2-1.9,0.2-2.1c0-0.1-0.1-0.1-0.3-0.1c-0.5,0.2-1,0.3-1.3,0.5c-2.2,1.1-3.4,2.8-3.5,5.1l-0.4,0.9
	c0-0.1-0.1-0.1-0.1-0.2c0-0.1-0.1-0.2-0.1-0.3c-0.5-0.8-0.7-1.2-0.7-1.2c0,0,0-0.1,0-0.2C56,13.4,56,13.1,56,13c0-0.3,0-0.5,0-0.6
	c0-0.4-0.1-0.9-0.3-1.3c-0.5-1-1.2-1.6-2.1-1.8c-0.5-0.2-0.8-0.2-1.1-0.1c-0.1-0.1-0.1,0.3-0.1,1c0.1,1.1,0.3,1.9,0.6,2.4
	c0.1,0.2,0.3,0.5,0.5,0.7c1,0.8,1.6,1.4,1.8,1.7c0.1,0.2,0.2,0.4,0.3,0.6c-0.1,0.1-0.2,0.3-0.2,0.5c0.1,1.5-0.2,3.1-0.9,4.6
	c0,0,0,0,0,0c-0.1,0.2-0.2,0.5-0.4,0.8c0,0,0,0,0,0c0-0.2,0-0.3,0-0.4c0,0,0.1-0.4,0.4-1.3c0.2-0.8,0.3-1.3,0.3-1.5
	c0-0.9-0.2-1.7-0.5-2.4c-0.1-0.3-0.4-0.6-0.7-0.9c-0.9-0.6-1.5-0.9-1.6-1c-0.1,0-0.1,0-0.1,0.2c-0.1,0.4-0.2,0.8-0.3,1.3
	c-0.2,1-0.1,1.9,0.2,2.9c0.3,0.8,0.8,1.6,1.7,2.5l0.4,0.8c-0.4,0.6-1.1,1.4-2,2.2c0-0.2,0-0.4,0-0.6c0-0.3-0.3-0.6-0.6-0.6
	c-0.3,0-0.6,0.3-0.6,0.6c0,3.2-1.3,6.1-4,8.7c-0.1-0.1-0.1-0.2-0.2-0.4l-0.8-2.8c0,0,0,0,0,0c-0.7-1.9-1.1-3.1-1.3-3.7
	c0.2-0.4,0.3-0.7,0.4-0.9c0.1-0.3,0.2-0.8,0.3-1.3c0.1-0.6,0.1-1.2,0.1-1.8c0.3-0.5,0.7-0.8,1.1-1c0.2-0.1,0.4-0.2,0.7-0.4
	c1.3-0.4,1.9-0.7,2-0.8c0.4-0.3,0.8-0.8,1.2-1.7c0.2-0.3,0.3-0.7,0.4-1.3c0.2-1.2,0.2-1.9,0.2-2.1c0-0.1-0.1-0.1-0.3-0.1
	c-0.5,0.2-1,0.3-1.3,0.5c-2.2,1.1-3.4,2.8-3.5,5.1l-0.4,1c0-0.4-0.1-1.1-0.2-2c0-0.2-0.2-0.4-0.4-0.5c0-0.1,0-0.1,0.1-0.2
	c0,0,0.2-0.5,0.8-1.4c0.4-0.9,0.7-1.4,0.7-1.6c0.2-1.1,0.2-2.1,0-2.9c-0.1-0.4-0.3-0.7-0.6-1.2C44.7,9.6,44.2,9.1,44,9
	c-0.1,0-0.1,0-0.2,0.2c-0.2,0.4-0.5,0.9-0.7,1.4c-0.4,1.1-0.6,2.2-0.4,3.4C42.9,15,43.3,16.1,44.1,17.3z"/>
<path class="st0" d="M31.5,20.1c0.3,0.1,0.6,0.1,0.9,0.2c1.1,0,1.9,0.1,2.3,0.1l0.8,0.2h0l0,0h0c0.3,1.2,0.7,2.3,1.2,3.3
	c-0.1,0-0.1-0.1-0.2-0.1c0,0-0.4-0.4-1.2-1.3c-0.3-0.3-0.6-0.5-0.8-0.7c-0.6-0.4-1.5-0.6-2.4-0.7c-0.4,0-0.8,0-1.3,0.1
	c-0.1,0-0.5,0.1-1.2,0.3c-0.2,0-0.2,0.1-0.2,0.2c0.3,0.8,1,1.7,2.2,2.6c0.6,0.5,1.3,0.8,2.1,0.8c0.3,0,0.6,0,0.9,0
	c1.1-0.2,1.8-0.4,2.2-0.4l0.4,0h0c0.3,0.6,0.6,1.1,1,1.6c0,0,0,0,0,0c1.3,1.6,2.9,2.8,4.8,3.4l-0.5-1.6c-1.3-0.6-2.4-1.4-3.3-2.6
	c-0.7-1-1.3-2.1-1.7-3.3c0.3-0.3,0.6-0.6,0.9-0.8c0.2-0.1,0.4-0.2,0.7-0.4c1.3-0.4,1.9-0.7,2-0.9c0.4-0.3,0.8-0.8,1.2-1.7
	c0.2-0.3,0.3-0.7,0.4-1.3c0.2-1.2,0.2-1.9,0.2-2.1c0-0.1-0.1-0.1-0.3-0.1c-0.5,0.2-1,0.3-1.3,0.5c-2.2,1.1-3.4,2.8-3.5,5.1l-0.4,1
	c-0.4-1.2-0.7-2.5-0.9-3.9c0-0.3-0.3-0.5-0.6-0.5c0-0.1,0.1-0.3,0.1-0.4c0,0,0.2-0.5,0.8-1.4c0.4-0.9,0.7-1.4,0.7-1.6
	c0.2-1.1,0.2-2.1,0-2.9c-0.1-0.4-0.3-0.7-0.6-1.2c-0.9-0.9-1.5-1.4-1.6-1.5c-0.1,0-0.1,0-0.2,0.2c-0.2,0.4-0.5,0.9-0.7,1.4
	c-0.4,1.1-0.6,2.2-0.4,3.4c0.1,1,0.6,2.1,1.4,3.3l0.2,0.7c0,0,0,0,0,0l0,0h0c-0.2,0.1-0.3,0.4-0.3,0.6c0.1,0.8,0.3,1.5,0.4,2.2
	c-0.1-0.1-0.2-0.2-0.4-0.3c-0.1-0.1-0.2-0.2-0.4-0.4c0,0-0.3-0.5-0.9-1.6c-0.2-0.3-0.4-0.6-0.7-0.9c-0.5-0.5-1.3-1-2.3-1.2
	c-0.4-0.1-0.8-0.2-1.4-0.2c-0.1,0-0.5,0-1.3,0c-0.2,0-0.3,0-0.3,0.1c0.1,0.8,0.7,1.9,1.6,3.2C30.1,19.4,30.7,19.8,31.5,20.1z
	 M37.4,22.2C37.4,22.2,37.4,22.2,37.4,22.2C37.4,22.2,37.4,22.2,37.4,22.2z"/>
<path class="st0" d="M68.4,25.5l0.2,0.7c-0.2,0-0.3,0.1-0.4,0.2c-0.9,1.1-2,2.2-3.4,3.1c-0.7,0.4-1.2,0.7-1.4,0.8l0,0
	c-0.4,0.2-0.7,0.3-1,0.4c0.4-0.9,0.8-1.8,1-2.7c0.3-0.3,0.7-0.8,1.3-1.4c0.1-0.2,0.3-0.4,0.4-0.6c0.5-1.3,0.7-2.5,0.7-3.5
	c-0.1-0.6-0.4-1.6-1-3c-0.7,0.7-1.3,1.5-1.9,2.5c-0.4,0.8-0.7,1.6-0.7,2.4c0,0.3,0,0.7,0,1c0,0.2,0.1,0.7,0.2,1.4c0,0.1,0,0.1,0,0.2
	c-0.1,0.1-0.1,0.2-0.1,0.2c-0.1,0.5-0.3,1-0.5,1.6c0,0.1-0.1,0.2-0.1,0.2c0,0.1-0.1,0.1-0.1,0.2c0,0.1-0.1,0.2-0.1,0.2
	c0,0.1-0.1,0.1-0.1,0.2c0,0.1-0.1,0.2-0.1,0.2c0,0.1-0.1,0.1-0.1,0.2c0,0.1-0.1,0.2-0.1,0.2c-0.6,1.2-1.5,2.4-2.5,3.7
	c-0.8,0.9-1.7,1.8-2.6,2.6l-5.4,3.8c0,0,0,0,0,0c-0.2,0.2-0.5,0.4-0.7,0.6c-0.4,0.3-0.7,0.7-1.1,1.1c0.1,0.5,0.2,1,0.3,1.6l0,0
	c0.1,0.7,0.3,1.5,0.4,2.4c0.3,1.9,0.5,3.9,0.6,5.7c0.1,1.2,0.1,2,0.1,2.6c0,0,0,0.1,0,0.1c0,0,0,0,0,0c0,0.5,0,1.1,0,1.5
	c0.4-0.3,0.8-0.6,1.2-0.9l0,0l0,0c1.6-1.1,3.7-2.5,6.1-4c0,0,0,0,0,0c0.9-0.7,1.8-1.5,2.6-2.4c2.3-2,3.8-5,4.6-9
	c0.1-0.3-0.1-0.7-0.5-0.7c0,0-0.1,0-0.1,0c-0.3,0-0.6,0.2-0.6,0.5c-0.3,1.6-0.8,3-1.4,4.3c-0.1-0.3-0.1-0.6-0.1-0.7
	c0-0.2,0-0.4,0-0.5c0.2-1,0.3-1.6,0.3-1.8c0-0.4-0.1-0.9-0.3-1.4c-0.4-1.3-1.4-2.3-3-3.1c-0.2,0.2-0.4,1.2-0.6,2.8
	c-0.1,0.6,0,1.2,0.1,1.9c0.1,0.5,0.3,1,0.7,1.4c0.1,0.2,0.6,0.6,1.7,1.5c0.2,0.2,0.3,0.3,0.4,0.5c0.1,0.2,0.2,0.3,0.2,0.6
	c-0.7,1.2-1.4,2.1-2.3,3c0,0,0,0,0,0c-0.7,0.8-1.5,1.6-2.4,2.2c-2.1,1.3-3.9,2.5-5.4,3.6l0,0l0,0c0-0.5-0.1-1.2-0.1-1.9v0
	C51.3,50,51.1,48,50.8,46l0,0c-0.2-1.3-0.4-2.4-0.6-3.4c0,0,0,0,0,0l0,0v0l0,0v0h0c0.4-0.4,0.8-0.8,1.2-1.1l5.4-3.8c0,0,0,0,0.1,0
	c1-0.9,1.9-1.8,2.7-2.7l0,0c0.7-0.9,1.4-1.7,1.9-2.6c0.1,0,0.1,0,0.2,0h0c0.3,0,1-0.3,2.1-0.7l0,0c0.4-0.1,0.9-0.4,1.7-0.9l0,0
	c1.5-1,2.6-2,3.6-3.2c0.1,0,0.3-0.1,0.4-0.1c0.1,0,0.2,0,0.5-0.1c0,0,0.5,0,1.5,0c0.3,0,0.6-0.1,0.9-0.1c0.6-0.2,1.2-0.5,1.8-1.1
	c0.2-0.2,0.5-0.5,0.7-0.9c0.1-0.1,0.2-0.4,0.5-0.9c0.1-0.1,0.1-0.2,0-0.2c-0.6-0.3-1.6-0.3-2.9-0.1c-0.6,0.1-1.2,0.4-1.7,0.8
	c-0.2,0.2-0.3,0.4-0.5,0.6c-0.5,0.7-0.8,1.3-1,1.6c0-0.2-0.1-0.3-0.2-0.4c0,0-0.1,0-0.1,0c0,0,0,0,0,0c0-0.2,0.1-0.4,0.1-0.5
	c0,0,0.2-0.5,0.8-1.4c0.4-0.9,0.7-1.4,0.7-1.6c0.2-1.1,0.2-2.1,0-2.9c-0.1-0.4-0.3-0.7-0.6-1.2c-0.9-0.9-1.5-1.4-1.6-1.5
	c-0.1,0-0.1,0-0.2,0.2c-0.2,0.4-0.5,0.9-0.7,1.4C67,19.9,66.9,21,67,22.2C67.1,23.2,67.6,24.3,68.4,25.5z"/>
<path class="st0" d="M72.3,35.7l-0.2,0.5c-0.3-0.1-0.6,0.1-0.7,0.4c-0.5,1.3-1.1,2.3-1.9,2.9l0,0c-0.1,0.1-0.2,0.1-0.3,0.2
	c-0.2-0.5-0.3-0.9-0.3-1l0,0c-0.1-0.5-0.2-0.9-0.2-1.2l0,0c-0.1-0.8-0.2-1.7-0.3-2.7c0.3-0.4,0.6-0.7,0.9-0.9
	c0.2-0.1,0.4-0.2,0.7-0.4c1.3-0.4,1.9-0.7,2-0.8c0.4-0.3,0.8-0.8,1.2-1.7c0.2-0.3,0.3-0.7,0.4-1.3c0.2-1.2,0.2-1.9,0.2-2.1
	c0-0.1-0.1-0.1-0.3-0.1c-0.5,0.2-1,0.3-1.3,0.5c-2.2,1.1-3.4,2.8-3.5,5.1L68.4,34c-0.1-0.3-0.3-0.5-0.6-0.4c-0.3,0-0.6,0.3-0.6,0.7
	c0,0.3,0,0.7,0.1,1c-0.1-0.2-0.5-0.4-1-0.8c-0.4-0.4-0.7-0.7-0.8-0.8c-0.2-0.2-0.4-0.3-0.6-0.4c-0.5-0.3-1-0.4-1.6-0.3
	c-0.2,0-0.5,0.1-0.9,0.2c-0.6,0.2-0.8,0.3-0.7,0.4c0.4,1.8,1.1,2.8,2,3.1c0.5,0.2,1.1,0.3,1.6,0.3c0.2,0,0.4-0.1,0.6-0.2
	c0.2-0.1,0.6-0.3,1.2-0.6c0.1,0,0.2-0.1,0.3-0.1c0.1,0.6,0.1,1.2,0.2,1.8c0,0.3,0.1,0.7,0.3,1.3l0,0c0,0.2,0.2,0.7,0.4,1.5
	c0,0,0,0.1,0,0.1c-0.8,0.6-1.5,1-2.1,1.3c0-0.4,0.1-1,0.1-1.7c0-0.3-0.2-0.6-0.6-0.7c-0.3,0-0.6,0.2-0.7,0.6
	c-0.1,1.5-0.2,2.3-0.2,2.5c0,0,0,0.1,0,0.1c-0.1,0.5-0.3,1.2-0.7,2.1c0,0.1,0,0.1,0,0.2c0,0,0,0,0,0c-0.1,0.4-1,1.6-2.6,3.6
	c0,0,0,0.1-0.1,0.1c-0.2,0.4-0.4,0.7-0.5,0.9c0,0.1,0,0.2,0,0.3c0,0.4,0.2,0.6,0.5,0.6c0.5,0.3,1.3,0.4,2.2,0.5h0
	c2.2,0.2,3.5,0.2,3.9,0.1c0.1,0,0.1,0,0.2-0.1c2.2-1,3.6-2.1,4.2-3.4c0.1-0.2,0.1-0.4,0-0.6c0.2-0.2,0.4-0.3,0.8-0.6
	c0.7-0.6,1.1-1,1.2-1.2c0.6-0.9,0.9-1.7,1-2.5c0-0.3,0-0.8-0.1-1.2c-0.5-1.2-0.8-1.8-0.9-1.9c0-0.1-0.1,0-0.2,0.1
	c-0.4,0.3-0.7,0.6-1.1,1c-0.8,0.8-1.3,1.7-1.6,2.8c-0.2,0.9-0.2,2,0,3.4c-0.1,0.1-0.1,0.1-0.1,0.2c-0.5,1-1.7,2-3.6,2.8c0,0,0,0,0,0
	c-0.3,0.1-1.5,0.1-3.5-0.1h0c-0.6,0-1.1-0.1-1.4-0.2c0-0.1,0.1-0.1,0.1-0.2c1.8-2.1,2.7-3.5,2.8-4c0,0,0,0,0,0
	c0.3-0.8,0.5-1.4,0.7-1.8c1.3-0.5,2.8-1.4,4.5-2.9l0,0c0.9-0.8,1.6-1.9,2.2-3.4c0-0.1,0-0.2,0-0.3c0.1-0.1,0.2-0.2,0.3-0.3
	c0.2-0.1,0.4-0.2,0.7-0.4c1.3-0.4,1.9-0.7,2-0.8c0.4-0.3,0.8-0.8,1.2-1.7c0.2-0.3,0.3-0.7,0.4-1.3c0.2-1.2,0.2-1.9,0.2-2.1
	c0-0.1-0.1-0.1-0.3-0.1c-0.5,0.2-1,0.3-1.3,0.5C73.6,31.7,72.4,33.4,72.3,35.7z M68.2,40.4L68.2,40.4L68.2,40.4L68.2,40.4z
	 M67.1,49.8L67.1,49.8C67.1,49.8,67.1,49.8,67.1,49.8L67.1,49.8z M67,49.8C67,49.8,67,49.9,67,49.8C67,49.9,67,49.8,67,49.8z
	 M61.7,49.3c-0.1-0.1-0.2-0.1-0.4-0.1c0.2,0,0.4,0,0.5,0.1C61.8,49.3,61.8,49.3,61.7,49.3z M64.8,42.5
	C64.8,42.5,64.8,42.5,64.8,42.5L64.8,42.5C64.8,42.5,64.8,42.5,64.8,42.5z"/>
<path class="st0" d="M85.7,48.7c-0.4-0.3-0.8-0.6-1.1-0.8c-2-1.1-3.9-1.1-5.7,0l-0.7,0.1c0.3-0.3,0.7-0.7,1.1-1
	c0.2-0.2,0.2-0.6,0.1-0.8c0.3-0.4,0.6-0.6,0.9-0.8c0.2-0.1,0.4-0.2,0.7-0.4c1.3-0.4,1.9-0.7,2-0.8c0.4-0.3,0.8-0.8,1.2-1.7
	c0.2-0.3,0.3-0.7,0.4-1.3c0.2-1.2,0.2-1.9,0.2-2.1c0-0.1-0.1-0.1-0.3-0.1c-0.5,0.2-1,0.3-1.3,0.5c-2.2,1.1-3.4,2.8-3.5,5.1L79,46.1
	c-0.2-0.1-0.4,0-0.6,0.2c-0.7,0.7-1.3,1.2-1.9,1.7l0.3-1.1l0,0c0.4-1.4,0.7-2.7,0.8-3.6c0-0.1,0-0.3-0.1-0.4
	c0.2-0.5,0.4-0.8,0.7-1.1c0.1-0.2,0.3-0.3,0.6-0.5c1.1-0.7,1.7-1.1,1.7-1.3c0.3-0.4,0.6-1,0.8-1.9c0.1-0.3,0.1-0.8,0.1-1.3
	c-0.1-1.2-0.2-1.9-0.3-2.1c-0.1-0.1-0.2-0.1-0.3,0c-0.5,0.3-0.8,0.5-1.2,0.8c-1.9,1.6-2.6,3.5-2.2,5.7l-0.2,1.4c0,0-0.1,0-0.2,0
	c-0.3,0-0.7,0.2-0.7,0.6c-0.1,0.9-0.3,2-0.7,3.4l0,0l-0.5,1.7l0,0l0,0c0,0.1-0.2,0.4-0.4,1c0,0,0,0,0,0c-0.9,0.4-1.9,0.7-2.9,0.8
	c0.2-0.3,0.5-0.6,0.7-0.9c0.2-0.3,0.1-0.7-0.2-0.9C72.3,48.1,72.2,48,72,48c-0.2,0-0.4,0.1-0.5,0.3c-1.3,1.8-2.8,2.9-4.6,3.2l0,0
	c-0.5,0.1-1.1,0.2-1.7,0.2c-0.4,0-0.8,0-1.3-0.1l0,0c-0.7,0-2-0.4-3.7-1c0,0,0,0-0.1,0c-0.1,0-0.2,0-0.3,0c0,0,0,0,0,0
	c-0.2,0-0.4,0-0.5,0.1c0,0,0,0-0.1,0l-7.6,5.3c0,0,0,0,0,0h0l-1.2,0.9l0,0c0,0.6,0,1.1,0,1.5l1.2-0.9l0,0l0,0l8.2-5.7
	c1.8,0.7,3.1,1,4,1.1c0.5,0.1,1,0.1,1.4,0.1c0.7,0,1.3-0.1,1.9-0.2c1.2-0.2,2.2-0.6,3.2-1.3c0.2,0,0.4,0,0.6,0
	c0.1,0,0.1,0.1,0.2,0.1c0.2,0.1,0.3,0.2,0.4,0.3c0,0,0.4,0.4,1,1.3c0.7,0.8,1.1,1.2,1.3,1.3c0.9,0.6,1.8,1,2.7,1.1
	c0.4,0.1,0.8,0,1.3-0.1c1.3-0.5,1.9-0.8,2.1-0.9c0.1-0.1,0-0.1-0.1-0.3c-0.3-0.4-0.7-0.8-1.1-1.2c-0.8-0.8-1.9-1.4-3-1.8
	c-1-0.3-2.2-0.3-3.7,0l0,0c1.1-0.2,2.2-0.5,3.2-0.9l0,0c0.1,0,0.1-0.1,0.2-0.1c0.1,0,0.2-0.1,0.2-0.1c0.6-0.3,1.3-0.8,2-1.4
	c0.4,0,0.8,0.1,1.1,0.2c0.2,0.1,0.4,0.2,0.6,0.3c1,0.7,1.6,1.1,1.7,1.1c0.4,0.2,1.1,0.2,1.9,0.1c0.3,0,0.7-0.2,1.2-0.4
	c1-0.5,1.6-0.8,1.7-1C85.9,48.9,85.8,48.8,85.7,48.7z"/>
</svg>
