<?xml version="1.0" encoding="utf-8"?>
<!-- Generator: Adobe Illustrator 28.0.0, SVG Export Plug-In . SVG Version: 6.00 Build 0)  -->
<svg version="1.1" id="Layer_1" xmlns="http://www.w3.org/2000/svg" xmlns:xlink="http://www.w3.org/1999/xlink" x="0px" y="0px"
	 viewBox="0 0 100 91.7" style="enable-background:new 0 0 100 91.7;" xml:space="preserve">
<style type="text/css">
	.st0{stroke:#FFFFFF;stroke-miterlimit:10;}
</style>
<g>
	<path class="st0" d="M92,41.9L81,37.2v9.6L92,49.9C92,49.9,92,41.9,92,41.9z M91,48.6L82,46.1v-7.3l9.1,3.8V48.6z"/>
	<path class="st0" d="M92,51.4L81,48.6v9.1L92,59.4V51.4z M91,58.3L82,56.8v-6.9l9.1,2.3V58.3z"/>
	<path class="st0" d="M92,60.9L81,59.6v9.7H92V60.9z M91,68.2H82v-7.5l9.1,1.1V68.2z"/>
	<path class="st0" d="M57.5,28.8l-4.2-1.4v12.2l4.2,1.4V28.8z M56.5,39.7L54.3,39V28.8l2.2,0.7V39.7z"/>
	<path class="st0" d="M57.5,69.2V58.8l-4.2-0.5v11L57.5,69.2z M54.3,59.4l2.2,0.3v8.5l-2.2,0V59.4z"/>
	<path class="st0" d="M63.7,45.2l-4.2-1v11.5l4.2,0.4V45.2z M62.7,55l-2.2-0.2v-9.3l2.2,0.5V55z"/>
	<path class="st0" d="M70.6,33.7l-3.1-1.4v5.3l3.1,1.1V33.7z M69.6,37.2l-1.1-0.4v-3l1.1,0.5V37.2z"/>
	<path class="st0" d="M75.4,35.4l-3.3-1.3v10.2l3.3,1V35.4z M74.4,44l-1.3-0.4v-8l1.3,0.5V44z"/>
	<path class="st0" d="M68.5,56.6l3.5,0.4v-9.7l-3.5-0.8V56.6z M69.5,47.7L71,48v7.8l-1.5-0.2V47.7z"/>
	<path class="st0" d="M12.5,40.8v7.9l27.3-6.6v-9.5L12.5,40.8z M38.8,41.3l-25.3,6.1v-5.8l25.3-7.6V41.3z"/>
	<path class="st0" d="M12.5,59.9l27.3-3.3V46.1l-27.3,5.3C12.5,51.4,12.5,59.9,12.5,59.9z M13.5,52.2l25.3-4.9v8.4l-25.3,3
		C13.5,58.8,13.5,52.2,13.5,52.2z"/>
	<path class="st0" d="M12.5,71.2l27.3-1.1V60.1l-27.3,2.6C12.5,62.6,12.5,71.2,12.5,71.2z M13.5,63.5l25.3-2.4v8l-25.3,1V63.5z"/>
	<path class="st0" d="M79.4,31v-6.4L39.3,3.8L15.6,15.1v13L4,32.9v8.5l4,0.7v33.2h4.4l0,6.3l34.3,5.9l0.1,0l14.9-2.2l2-0.3v0
		l17.8-2.6l0.4-0.1v-9l13-0.4V38.2L79.4,31z M39.8,5.2l38.6,20v5.4L46.8,16.1l-7,2.9C39.8,19.1,39.8,5.2,39.8,5.2z M13.5,74.3H9v-33
		l-4-0.7v-7l11.6-4.8v-13L38.8,5.2v15.4l7.5-3.2v68.9l-32.8-5.7L13.5,74.3z M60.5,84.5v-9.8h2.2v9.5l-1,0.1L60.5,84.5z M94,72
		l-13,0.4v9.1L63.7,84V73.7h-4.2v10.9l-12.2,1.8V17.5L94,38.8L94,72L94,72z"/>
</g>
</svg>
