<svg xmlns="http://www.w3.org/2000/svg" xmlns:xlink="http://www.w3.org/1999/xlink" version="1.1" x="0px" y="0px" viewBox="0 0 128 160" style="enable-background:new 0 0 128 128;" xml:space="preserve"><g><path d="M28.78,55.626C28.59,55.862,28.304,56,28,56h-5v16h1.727c-0.469,2.363-1.486,3.864-2.555,5.438   C20.613,79.735,19,82.109,19,87c0,4.864,1.6,7.486,3.146,10.021C23.614,99.426,25,101.698,25,106c0,4.276-1.373,6.298-2.827,8.438   C20.613,116.734,19,119.109,19,124c0,0.552,0.447,1,1,1s1-0.448,1-1c0-4.276,1.373-6.298,2.827-8.438   C25.387,113.266,27,110.891,27,106c0-4.864-1.6-7.486-3.146-10.021C22.386,93.574,21,91.302,21,87c0-4.275,1.373-6.298,2.827-8.438   c1.194-1.759,2.417-3.586,2.925-6.562H28c0.304,0,0.59,0.138,0.78,0.374C30.178,74.117,31.934,75,34,75h13V53H34   C31.934,53,30.178,53.883,28.78,55.626z M44,69H34c-0.553,0-1-0.448-1-1s0.447-1,1-1h10c0.553,0,1,0.448,1,1S44.553,69,44,69z    M44,65H34c-0.553,0-1-0.448-1-1s0.447-1,1-1h10c0.553,0,1,0.448,1,1S44.553,65,44,65z M45,60c0,0.552-0.447,1-1,1H34   c-0.553,0-1-0.448-1-1s0.447-1,1-1h10C44.553,59,45,59.448,45,60z"/><path d="M21,56.101c-2.279,0.465-4,2.484-4,4.899v6c0,2.414,1.721,4.434,4,4.899V56.101z"/><rect x="38" y="101" width="4" height="24"/><path d="M43,89h-6c-0.552,0-1,0.449-1,1v8c0,0.551,0.448,1,1,1h6c0.552,0,1-0.449,1-1v-8C44,89.449,43.552,89,43,89z"/><path d="M49,77.944c1.624,14.352,15.103,32.872,20,39.191V4.865c-4.897,6.321-18.377,24.845-20,39.19V77.944z"/><path d="M71,3.58V118.42l36.027-17.053V20.633L71,3.58z M105,99.731c0,0.386-0.222,0.737-0.57,0.903l-30,14.269   C74.293,114.968,74.146,115,74,115c-0.187,0-0.372-0.052-0.534-0.155C73.176,114.662,73,114.343,73,114V8   c0-0.343,0.176-0.662,0.466-0.845c0.289-0.184,0.652-0.205,0.964-0.058l30,14.269c0.349,0.166,0.57,0.517,0.57,0.903V99.731z"/><rect x="38" y="77" width="4" height="10"/><polygon points="75,112.417 103,99.099 103,22.901 75,9.583  "/></g></svg>